<mxfile host="app.diagrams.net" modified="2024-03-11T05:50:45.443Z" agent="Mozilla/5.0 (Windows NT 10.0; Win64; x64) AppleWebKit/537.36 (KHTML, like Gecko) Chrome/122.0.0.0 Safari/537.36" version="24.0.4" etag="iVf4-8mU_dUYSEp-VMsX" type="github">
  <diagram name="Trang-1" id="y2aKU4KNYgEscf6qHHII">
    <mxGraphModel>
      <root>
        <mxCell id="0" />
        <mxCell id="1" parent="0" />
      </root>
    </mxGraphModel>
  </diagram>
</mxfile>
